<svg version="1" xmlns="http://www.w3.org/2000/svg" width="257.333" height="257.333" viewBox="0 0 193.000000 193.000000"><path d="M26.6 64.8c-.3.5-3.5 14.1-7.1 30.3-3.6 16.2-6.8 30.2-7.1 31.1-.5 1.6.2 1.8 5.9 1.8h6.5l2.7-11.8c1.5-6.4 2.9-12.7 3.2-14 .5-2.1.9-2.2 11.4-2.2 9.7 0 10.9.2 10.9 1.7-.1 1-1.4 7.3-2.9 14L47.3 128h6.3c5.1 0 6.4-.3 6.8-1.8 1-3.1 13.6-60 13.6-61.2 0-.7-2.1-1-6.2-.8l-6.3.3-2.9 13.2L55.7 91H44.4c-10.2 0-11.2-.2-10.8-1.8 2.9-12.2 5.2-23.7 4.8-24.4-.7-1-11.1-1-11.8 0zM82.6 65.1c-.9 2.8-13.6 60.2-13.6 61.6 0 1.1 1.3 1.3 6.2 1.1l6.2-.3 3-13.8 3.1-13.8 3.9.3 4 .3 4.1 13.7 4 13.8h14.4l-5-14.6c-2.7-8.1-4.8-14.8-4.7-14.9.2-.1 2.1-1.2 4.3-2.3 2.2-1.1 4.8-2.8 5.7-3.9 4.4-4.8 6.3-17.8 3.2-22.1-3.2-4.6-6.9-5.5-23.1-6-12.3-.4-15.4-.2-15.7.9zm24.8 8.9c2.2.8 2.6 1.6 2.6 5 0 5.2-2.4 9.8-5.6 11-3 1.2-14.4 1.3-14.4.2 0-.4.8-4.4 1.7-9l1.7-8.2h5.7c3.2 0 6.9.4 8.3 1zM152.5 65.4c-9.2 2.9-15.7 8.5-17 14.8-.4 1.8-2.2 10-4.1 18.1-4 17.3-4.1 20.5-1.3 24.1 3.8 4.8 7.5 6 18.4 6 8.3.1 10.8-.3 15-2.2 8.1-3.7 10.8-6.9 13.1-15.4l1.2-4.8H165l-1.1 4.2c-1.8 7.4-4.9 9.8-12.3 9.8-5.6 0-9.5-1.7-10.2-4.5-.5-2.1 6.1-33.6 7.8-36.8 2.9-5.5 15.2-7.8 19.7-3.6 1.9 1.8 2.1 2.7 1.6 6l-.7 3.9h6.1c3.3 0 6.2-.4 6.5-.9.4-.5.9-3 1.2-5.5.6-4.3.5-4.8-3.2-8.5-2.3-2.2-5.7-4.4-7.9-5-5.2-1.4-15-1.3-20 .3z"/></svg>